<?xml version="1.0" encoding="UTF-8"?>
<!DOCTYPE svg PUBLIC "-//W3C//DTD SVG 1.1//EN" "http://www.w3.org/Graphics/SVG/1.1/DTD/svg11.dtd">
<svg xmlns="http://www.w3.org/2000/svg" version="1.1" width="300px" height="261px" style="shape-rendering:geometricPrecision; text-rendering:geometricPrecision; image-rendering:optimizeQuality; fill-rule:evenodd; clip-rule:evenodd" xmlns:xlink="http://www.w3.org/1999/xlink">
<g><path style="opacity:0.904" fill="#0b0a08" d="M 31.5,-0.5 C 36.5,-0.5 41.5,-0.5 46.5,-0.5C 59.13,7.22555 62.13,17.7255 55.5,31C 62.954,37.4871 70.1206,44.3205 77,51.5C 100.186,19.509 131.353,7.34232 170.5,15C 192.396,20.9037 209.896,33.0704 223,51.5C 229.364,44.8014 236.031,38.4681 243,32.5C 236.429,16.975 240.929,5.97503 256.5,-0.5C 259.167,-0.5 261.833,-0.5 264.5,-0.5C 274.88,2.55798 280.546,9.55798 281.5,20.5C 290.021,21.42 296.021,25.7534 299.5,33.5C 299.5,38.1667 299.5,42.8333 299.5,47.5C 291.708,61.4896 280.875,64.4896 267,56.5C 256.296,66.3729 245.796,76.3729 235.5,86.5C 248.154,87.3326 260.82,87.8326 273.5,88C 279.587,93.0008 279.92,98.3341 274.5,104C 261.599,105.462 248.599,105.962 235.5,105.5C 231.965,130.833 219.965,150.999 199.5,166C 212.533,178.701 225.866,191.034 239.5,203C 242.495,202.354 245.495,201.354 248.5,200C 268.229,199.607 276.062,209.107 272,228.5C 268.298,235.602 262.465,239.602 254.5,240.5C 254.097,250.224 249.43,256.891 240.5,260.5C 236.167,260.5 231.833,260.5 227.5,260.5C 213.968,253.755 210.302,243.421 216.5,229.5C 212.815,224.981 208.648,220.981 204,217.5C 196.582,245.561 178.249,259.228 149,258.5C 119.835,258.652 101.835,244.652 95,216.5C 90.1994,220.299 85.6994,224.466 81.5,229C 87.9463,243.592 83.9463,254.092 69.5,260.5C 66.1667,260.5 62.8333,260.5 59.5,260.5C 50.3139,256.97 44.6472,250.303 42.5,240.5C 27.668,236.171 22.168,226.505 26,211.5C 30.1934,203.822 36.6934,199.489 45.5,198.5C 50.3541,199.779 55.0208,201.279 59.5,203C 72.6783,190.654 85.6783,178.154 98.5,165.5C 90.398,157.903 83.2313,149.57 77,140.5C 70.5831,130.009 66.7497,118.675 65.5,106.5C 52.7586,106.941 40.092,106.441 27.5,105C 22.6173,99.9421 22.284,94.6087 26.5,89C 39.0853,87.8703 51.752,87.037 64.5,86.5C 54.318,76.4841 43.9847,66.6508 33.5,57C 29.0507,58.4155 24.3841,59.5821 19.5,60.5C 9.94391,59.7398 3.27724,55.0732 -0.5,46.5C -0.5,42.1667 -0.5,37.8333 -0.5,33.5C 2.99194,25.0117 9.32527,20.3451 18.5,19.5C 18.8581,10.1603 23.1915,3.49366 31.5,-0.5 Z"/></g>
<g><path style="opacity:1" fill="#fafafa" d="M 32.5,4.5 C 44.5709,2.435 51.9042,7.26833 54.5,19C 53.273,23.9263 51.4396,28.4263 49,32.5C 57.3333,40.1667 65.6667,47.8333 74,55.5C 70.9389,63.0215 68.4389,70.8548 66.5,79C 66.1667,79.5 65.8333,80 65.5,80.5C 55.0112,70.1786 44.3445,60.0119 33.5,50C 32.5,49.3333 31.5,49.3333 30.5,50C 29.0226,52.1485 27.0226,53.4818 24.5,54C 12.604,56.2608 5.93728,51.4275 4.5,39.5C 5.77008,28.2402 12.1034,23.2402 23.5,24.5C 22.1918,15.7899 25.1918,9.12326 32.5,4.5 Z"/></g>
<g><path style="opacity:1" fill="#fafafa" d="M 256.5,4.5 C 270.887,4.22001 277.22,11.22 275.5,25.5C 291.381,25.546 297.215,33.2127 293,48.5C 285.585,56.7581 277.419,57.5915 268.5,51C 267.5,50.3333 266.5,50.3333 265.5,51C 255.317,60.6841 244.983,70.1841 234.5,79.5C 232.475,71.6158 229.475,64.1158 225.5,57C 228.451,53.0459 231.784,49.3793 235.5,46C 240.333,41.8333 245.167,37.6667 250,33.5C 249.268,30.7012 247.934,28.0345 246,25.5C 243.714,15.4042 247.214,8.40417 256.5,4.5 Z"/></g>
<g><path style="opacity:1" fill="#fbcd1e" d="M 139.5,17.5 C 176.026,15.4245 203.359,30.0912 221.5,61.5C 173.833,62.8333 126.167,62.8333 78.5,61.5C 91.6145,36.7046 111.948,22.0379 139.5,17.5 Z"/></g>
<g><path style="opacity:1" fill="#0e0a02" d="M 107.5,39.5 C 108.833,39.5 110.167,39.5 111.5,39.5C 111.649,40.552 111.483,41.552 111,42.5C 106.422,47.3457 102.089,52.3457 98,57.5C 94.9954,56.114 94.6621,54.114 97,51.5C 100.336,47.3322 103.836,43.3322 107.5,39.5 Z"/></g>
<g><path style="opacity:1" fill="#110d02" d="M 193.5,41.5 C 201.239,45.8199 204.905,52.3199 204.5,61C 203.551,61.6172 202.718,61.4506 202,60.5C 200.271,54.7034 197.271,49.7034 193,45.5C 192.421,44.0715 192.588,42.7382 193.5,41.5 Z"/></g>
<g><path style="opacity:1" fill="#181304" d="M 116.5,44.5 C 119.68,44.1762 120.847,45.5096 120,48.5C 116.905,51.692 114.572,55.3587 113,59.5C 109.667,61.1667 108.333,60.1667 109,56.5C 111.261,52.3037 113.761,48.3037 116.5,44.5 Z"/></g>
<g><path style="opacity:1" fill="#161104" d="M 180.5,47.5 C 184.043,47.872 186.21,49.872 187,53.5C 187.667,55.5 187.667,57.5 187,59.5C 186.586,59.9574 186.086,60.2907 185.5,60.5C 183.355,58.2681 181.855,55.6014 181,52.5C 180.506,50.8659 180.34,49.1992 180.5,47.5 Z"/></g>
<g><path style="opacity:1" fill="#1e1806" d="M 126.5,48.5 C 129.68,48.1762 130.847,49.5096 130,52.5C 128.471,53.7287 127.304,55.2287 126.5,57C 125.207,57.49 123.873,57.6567 122.5,57.5C 122.884,54.1042 124.218,51.1042 126.5,48.5 Z"/></g>
<g><path style="opacity:1" fill="#f60010" d="M 75.5,66.5 C 125.168,66.3333 174.834,66.5 224.5,67C 227.807,73.4423 229.473,80.2757 229.5,87.5C 176.5,87.5 123.5,87.5 70.5,87.5C 70.4422,80.0655 72.1089,73.0655 75.5,66.5 Z"/></g>
<g><path style="opacity:1" fill="#f8cb1e" d="M 31.5,91.5 C 111.167,91.3333 190.834,91.5 270.5,92C 272.729,94.553 273.062,97.3864 271.5,100.5C 191.502,101.667 111.502,101.833 31.5,101C 28.8881,97.8359 28.8881,94.6693 31.5,91.5 Z"/></g>
<g><path style="opacity:1" fill="#c5c5c5" d="M 229.5,106.5 C 176.489,105.838 123.823,106.504 71.5,108.5C 70.596,107.791 70.2627,106.791 70.5,105.5C 123.669,105.168 176.669,105.501 229.5,106.5 Z"/></g>
<g><path style="opacity:1" fill="#fafafa" d="M 229.5,106.5 C 220.227,150.299 193.227,172.632 148.5,173.5C 109.999,172.984 84.8319,154.317 73,117.5C 72.0467,114.568 71.5467,111.568 71.5,108.5C 123.823,106.504 176.489,105.838 229.5,106.5 Z"/></g>
<g><path style="opacity:1" fill="#040404" d="M 110.5,110.5 C 124.451,108.39 134.284,113.723 140,126.5C 141.691,138.285 137.191,146.785 126.5,152C 111.629,155.81 101.796,150.31 97,135.5C 95.7754,129.732 96.7754,124.399 100,119.5C 103.103,115.886 106.603,112.886 110.5,110.5 Z"/></g>
<g><path style="opacity:1" fill="#030303" d="M 175.5,110.5 C 188.011,108.824 197.178,113.491 203,124.5C 205.875,141.774 198.708,151.441 181.5,153.5C 163.907,150.336 157.407,140.003 162,122.5C 165.454,117.206 169.954,113.206 175.5,110.5 Z"/></g>
<g><path style="opacity:1" fill="#101010" d="M 146.5,152.5 C 151.126,151.7 154.96,153.034 158,156.5C 158.963,162.544 156.297,165.544 150,165.5C 145.427,165.592 142.594,163.426 141.5,159C 142.283,156.062 143.95,153.896 146.5,152.5 Z"/></g>
<g><path style="opacity:1" fill="#f4f4f4" d="M 107.5,169.5 C 112.909,171.615 118.409,173.615 124,175.5C 123.321,180.423 122.821,185.423 122.5,190.5C 115.634,188.934 109.467,185.934 104,181.5C 103.333,180.167 103.333,178.833 104,177.5C 104.921,174.664 106.088,171.998 107.5,169.5 Z"/></g>
<g><path style="opacity:1" fill="#f5f5f5" d="M 187.5,170.5 C 188.978,170.238 190.311,170.571 191.5,171.5C 193.588,175.313 194.755,179.313 195,183.5C 188.768,186.868 182.268,189.534 175.5,191.5C 174.74,186.18 174.073,180.847 173.5,175.5C 178.517,174.607 183.183,172.94 187.5,170.5 Z"/></g>
<g><path style="opacity:1" fill="#fafafa" d="M 196.5,170.5 C 210.631,183.462 224.631,196.629 238.5,210C 241.094,210.449 243.094,209.449 244.5,207C 257.332,201.916 265.332,206.083 268.5,219.5C 266.876,230.948 260.209,236.448 248.5,236C 250.058,250.773 243.391,257.106 228.5,255C 220.679,250.857 217.513,244.357 219,235.5C 220.5,233.167 222,230.833 223.5,228.5C 216.874,222.376 210.374,216.042 204,209.5C 203.86,196.007 201.36,183.007 196.5,170.5 Z"/></g>
<g><path style="opacity:1" fill="#fafafa" d="M 99.5,171.5 C 100.376,171.369 101.043,171.702 101.5,172.5C 96.3235,184.265 94.1569,196.598 95,209.5C 87.9902,215.678 81.1569,222.011 74.5,228.5C 80.5434,235.405 81.0434,242.739 76,250.5C 69.7279,256.012 62.8946,256.845 55.5,253C 50.0485,248.038 48.0485,241.871 49.5,234.5C 37.4221,236.251 30.7554,231.084 29.5,219C 31.977,207.52 38.977,202.853 50.5,205C 53.5198,207.001 56.5198,208.668 59.5,210C 73.0794,197.251 86.4127,184.417 99.5,171.5 Z"/></g>
<g><path style="opacity:1" fill="#f6f6f6" d="M 147.5,178.5 C 147.5,183.833 147.5,189.167 147.5,194.5C 145.167,194.5 142.833,194.5 140.5,194.5C 136.046,194.578 131.713,193.911 127.5,192.5C 126.443,187.492 126.609,182.492 128,177.5C 128.414,177.043 128.914,176.709 129.5,176.5C 135.373,178.157 141.373,178.823 147.5,178.5 Z"/></g>
<g><path style="opacity:1" fill="#f7f7f7" d="M 159.5,194.5 C 157.167,194.5 154.833,194.5 152.5,194.5C 152.218,189.073 152.551,183.74 153.5,178.5C 158.822,178.02 164.155,177.687 169.5,177.5C 170.094,182.846 170.761,188.18 171.5,193.5C 167.5,193.833 163.5,194.167 159.5,194.5 Z"/></g>
<g><path style="opacity:1" fill="#858585" d="M 147.5,178.5 C 148.489,183.975 148.822,189.642 148.5,195.5C 145.615,195.806 142.948,195.473 140.5,194.5C 142.833,194.5 145.167,194.5 147.5,194.5C 147.5,189.167 147.5,183.833 147.5,178.5 Z"/></g>
<g><path style="opacity:1" fill="#919191" d="M 153.5,178.5 C 152.551,183.74 152.218,189.073 152.5,194.5C 154.833,194.5 157.167,194.5 159.5,194.5C 157.052,195.473 154.385,195.806 151.5,195.5C 150.883,189.402 151.55,183.735 153.5,178.5 Z"/></g>
<g><path style="opacity:1" fill="#f5f5f5" d="M 101.5,185.5 C 107.568,188.617 113.735,191.617 120,194.5C 120.169,199.161 120.003,203.828 119.5,208.5C 112.975,206.571 106.975,203.571 101.5,199.5C 100.431,194.844 100.431,190.178 101.5,185.5 Z"/></g>
<g><path style="opacity:1" fill="#f2f2f2" d="M 195.5,187.5 C 197.117,188.589 197.95,190.256 198,192.5C 198.667,195.167 198.667,197.833 198,200.5C 191.809,205.013 184.976,208.013 177.5,209.5C 177.387,204.482 177.053,199.482 176.5,194.5C 183.271,193.135 189.604,190.801 195.5,187.5 Z"/></g>
<g><path style="opacity:1" fill="#f5f5f5" d="M 147.5,199.5 C 147.5,204.5 147.5,209.5 147.5,214.5C 144.833,214.5 142.167,214.5 139.5,214.5C 134.081,213.81 128.747,212.81 123.5,211.5C 123.751,206.493 124.084,201.493 124.5,196.5C 132.258,197.809 139.925,198.809 147.5,199.5 Z"/></g>
<g><path style="opacity:1" fill="#f5f5f5" d="M 158.5,214.5 C 156.5,214.5 154.5,214.5 152.5,214.5C 152.5,209.5 152.5,204.5 152.5,199.5C 159.003,198.307 165.669,197.307 172.5,196.5C 173.275,201.797 173.608,207.13 173.5,212.5C 168.516,213.275 163.516,213.942 158.5,214.5 Z"/></g>
<g><path style="opacity:1" fill="#848484" d="M 147.5,199.5 C 148.488,204.64 148.821,209.974 148.5,215.5C 145.287,215.81 142.287,215.477 139.5,214.5C 142.167,214.5 144.833,214.5 147.5,214.5C 147.5,209.5 147.5,204.5 147.5,199.5 Z"/></g>
<g><path style="opacity:1" fill="#8d8d8d" d="M 152.5,199.5 C 152.5,204.5 152.5,209.5 152.5,214.5C 154.5,214.5 156.5,214.5 158.5,214.5C 156.393,215.468 154.059,215.802 151.5,215.5C 151.179,209.974 151.512,204.64 152.5,199.5 Z"/></g>
<g><path style="opacity:1" fill="#fafafa" d="M 99.5,203.5 C 132.03,224 165.03,224.666 198.5,205.5C 199.911,224.847 192.244,239.347 175.5,249C 160.014,254.094 144.348,254.76 128.5,251C 108.057,241.978 98.3904,226.145 99.5,203.5 Z"/></g>
</svg>
